<svg width="16" height="16" viewBox="0 0 16 16" fill="none" xmlns="http://www.w3.org/2000/svg">
<path d="M4.50662 14.6668H11.4933C13.3333 14.6668 14.0666 13.5402 14.1533 12.1668L14.4999 6.66016C14.5933 5.22016 13.4466 4.00016 11.9999 4.00016C11.5933 4.00016 11.2199 3.76683 11.0333 3.40683L10.5533 2.44016C10.2466 1.8335 9.44662 1.3335 8.76662 1.3335H7.23995C6.55328 1.3335 5.75328 1.8335 5.44662 2.44016L4.96662 3.40683C4.77995 3.76683 4.40662 4.00016 3.99995 4.00016C2.55328 4.00016 1.40662 5.22016 1.49995 6.66016L1.84662 12.1668C1.92662 13.5402 2.66662 14.6668 4.50662 14.6668Z" stroke="black" stroke-linecap="round" stroke-linejoin="round"/>
<path d="M7 5.3335H9" stroke="black" stroke-linecap="round" stroke-linejoin="round"/>
<path d="M7.99992 11.9998C9.19325 11.9998 10.1666 11.0265 10.1666 9.83317C10.1666 8.63984 9.19325 7.6665 7.99992 7.6665C6.80659 7.6665 5.83325 8.63984 5.83325 9.83317C5.83325 11.0265 6.80659 11.9998 7.99992 11.9998Z" stroke="black" stroke-linecap="round" stroke-linejoin="round"/>
</svg>
