<svg width="40" height="40" viewBox="0 0 40 40" fill="none" xmlns="http://www.w3.org/2000/svg">
<g clip-path="url(#clip0_10_7911)">
<path d="M24.1533 3.4125C23.2616 3.18271 22.3549 3.73079 22.1334 4.62585L14.6335 34.6252C14.4086 35.5169 14.9518 36.4218 15.8469 36.6451C15.9818 36.6784 16.1185 36.6952 16.2519 36.6952C16.9986 36.6952 17.6767 36.1901 17.8668 35.4318L25.3667 5.43242C25.59 4.54102 25.0465 3.63589 24.1533 3.4125Z" fill="#F45F5E"/>
<path d="M12.8452 8.85094C12.1933 8.1991 11.1402 8.1991 10.4887 8.85094L0.488881 18.8507C-0.16296 19.5023 -0.16296 20.5557 0.488881 21.2073L10.4887 31.207C10.8134 31.532 11.2403 31.6953 11.6669 31.6953C12.0936 31.6953 12.5202 31.532 12.8452 31.207C13.4967 30.5555 13.4967 29.5021 12.8452 28.8505L4.02366 20.029L12.8452 11.2075C13.4967 10.5559 13.4967 9.50248 12.8452 8.85094Z" fill="#F45F5E"/>
<path d="M39.5112 18.8507L29.5114 8.85094C28.8599 8.1991 27.8064 8.1991 27.1549 8.85094C26.5031 9.50248 26.5031 10.5559 27.1549 11.2075L35.9764 20.029L27.1549 28.8505C26.5031 29.5021 26.5031 30.5555 27.1549 31.207C27.4799 31.532 27.9065 31.6953 28.3332 31.6953C28.7598 31.6953 29.1864 31.532 29.5114 31.207L39.5112 21.2073C40.163 20.5557 40.163 19.5023 39.5112 18.8507Z" fill="#F45F5E"/>
</g>
<defs>
<clipPath id="clip0_10_7911">
<rect width="40" height="40" fill="white"/>
</clipPath>
</defs>
</svg>
