<svg width="40" height="40" viewBox="0 0 40 40" fill="none" xmlns="http://www.w3.org/2000/svg">
<path d="M11.25 22.5H3.75C3.05964 22.5 2.5 23.0596 2.5 23.75V36.25C2.5 36.9404 3.05964 37.5 3.75 37.5H11.25C11.9404 37.5 12.5 36.9404 12.5 36.25V23.75C12.5 23.0596 11.9404 22.5 11.25 22.5Z" fill="#4382FA"/>
<path d="M36.25 12.5H28.75C28.0596 12.5 27.5 13.0596 27.5 13.75V36.25C27.5 36.9404 28.0596 37.5 28.75 37.5H36.25C36.9404 37.5 37.5 36.9404 37.5 36.25V13.75C37.5 13.0596 36.9404 12.5 36.25 12.5Z" fill="#4382FA"/>
<path d="M23.75 2.5H16.25C15.5596 2.5 15 3.05964 15 3.75V36.25C15 36.9404 15.5596 37.5 16.25 37.5H23.75C24.4404 37.5 25 36.9404 25 36.25V3.75C25 3.05964 24.4404 2.5 23.75 2.5Z" fill="#4382FA"/>
</svg>
