<svg width="40" height="40" viewBox="0 0 40 40" fill="none" xmlns="http://www.w3.org/2000/svg">
<g clip-path="url(#clip0_10_7905)">
<path d="M38.2609 37.2394H15.6517C14.6916 37.2394 13.9124 36.4605 13.9124 35.5004C13.9124 34.5402 14.6916 33.7613 15.6517 33.7613H38.2609C39.221 33.7613 40 34.5402 40 35.5004C40 36.4605 39.221 37.2394 38.2609 37.2394Z" fill="#FFC300"/>
<path d="M33.5096 6.18839L31.0502 3.72898C29.7356 2.41409 27.445 2.416 26.132 3.72898L22.5354 7.32558L29.913 14.7032L33.5096 11.1066C34.1669 10.4509 34.5286 9.578 34.5286 8.64748C34.5286 7.71887 34.1669 6.84568 33.5096 6.18839Z" fill="#FFC300"/>
<path d="M20.0743 9.78659L2.1502 27.7107C2.03556 27.8237 1.95563 27.968 1.91901 28.1263L0.0232594 36.1697C-0.0461632 36.4621 0.0423665 36.7716 0.254774 36.9837C0.41814 37.149 0.640739 37.2394 0.868432 37.2394C0.93467 37.2394 1.0025 37.2324 1.06842 37.2168L9.11221 35.3211C9.26889 35.2848 9.41315 35.2045 9.52779 35.0899L27.4519 17.1661L20.0743 9.78659Z" fill="#FFC300"/>
</g>
<defs>
<clipPath id="clip0_10_7905">
<rect width="40" height="40" fill="white"/>
</clipPath>
</defs>
</svg>
