<svg width="40" height="40" viewBox="0 0 40 40" fill="none" xmlns="http://www.w3.org/2000/svg">
<g clip-path="url(#clip0_10_7926)">
<path d="M4.58333 8.33333C2.055 8.33333 0 10.3883 0 12.9167V30.4167C0 32.945 2.055 35 4.58333 35H35.4167C37.945 35 40 32.945 40 30.4167V12.9167C40 10.3883 37.945 8.33333 35.4167 8.33333H34.5217L33.2883 5.86666C32.5067 4.30499 30.9367 3.33333 29.19 3.33333H22.06C20.3133 3.33333 18.7433 4.30499 17.9617 5.86666L16.7283 8.33333H4.58333ZM26.6667 13.3333C31.2617 13.3333 35 17.0717 35 21.6667C35 26.2617 31.2617 30 26.6667 30C22.0717 30 18.3333 26.2617 18.3333 21.6667C18.3333 17.0717 22.0717 13.3333 26.6667 13.3333ZM13.3333 15.4167C13.3333 16.1067 12.7733 16.6667 12.0833 16.6667H6.25C5.56 16.6667 5 16.1067 5 15.4167C5 14.7267 5.56 14.1667 6.25 14.1667H12.0833C12.7733 14.1667 13.3333 14.7267 13.3333 15.4167Z" fill="#30B48B"/>
<path d="M8.33341 11.6667C7.41341 11.6667 6.66675 10.92 6.66675 10V6.66667C6.66675 5.74667 7.41341 5 8.33341 5C9.25341 5 10.0001 5.74667 10.0001 6.66667V10C10.0001 10.92 9.25341 11.6667 8.33341 11.6667Z" fill="#30B48B"/>
</g>
<defs>
<clipPath id="clip0_10_7926">
<rect width="40" height="40" fill="white"/>
</clipPath>
</defs>
</svg>
