<svg width="25" height="24" viewBox="0 0 25 24" fill="none" xmlns="http://www.w3.org/2000/svg">
<path d="M16.333 1.95435H8.33301C4.33301 1.95435 2.33301 3.90873 2.33301 7.81751V20.521C2.33301 21.0585 2.78301 21.4982 3.33301 21.4982H16.333C20.333 21.4982 22.333 19.5438 22.333 15.6351V7.81751C22.333 3.90873 20.333 1.95435 16.333 1.95435ZM14.333 14.9022H7.33301C6.92301 14.9022 6.58301 14.5699 6.58301 14.1693C6.58301 13.7686 6.92301 13.4364 7.33301 13.4364H14.333C14.743 13.4364 15.083 13.7686 15.083 14.1693C15.083 14.5699 14.743 14.9022 14.333 14.9022ZM17.333 10.0162H7.33301C6.92301 10.0162 6.58301 9.68395 6.58301 9.2833C6.58301 8.88265 6.92301 8.5504 7.33301 8.5504H17.333C17.743 8.5504 18.083 8.88265 18.083 9.2833C18.083 9.68395 17.743 10.0162 17.333 10.0162Z" fill="#23408F"/>
</svg>
