<svg width="18" height="18" viewBox="0 0 18 18" fill="none" xmlns="http://www.w3.org/2000/svg">
<path d="M16.3719 0.199951H1.97189C1.08789 0.199951 0.371887 0.915951 0.371887 1.79995V16.2C0.371887 17.084 1.08789 17.8 1.97189 17.8H16.3719C17.2559 17.8 17.9719 17.084 17.9719 16.2V1.79995C17.9719 0.915951 17.2551 0.199951 16.3719 0.199951ZM14.5375 6.36555L8.48949 12.4136C8.33909 12.564 8.13589 12.648 7.92389 12.648C7.71189 12.648 7.50789 12.564 7.35829 12.4136L4.59589 9.65115C4.28309 9.33835 4.28309 8.83275 4.59589 8.51995C4.90869 8.20715 5.41429 8.20715 5.72709 8.51995L7.92389 10.7168L13.4063 5.23435C13.7191 4.92155 14.2247 4.92155 14.5375 5.23435C14.8503 5.54715 14.8503 6.05275 14.5375 6.36555Z" fill="#23408F"/>
</svg>
