<svg width="25" height="24" viewBox="0 0 25 24" fill="none" xmlns="http://www.w3.org/2000/svg">
<path d="M22.6665 4.73941V16.3582C22.6665 17.3061 21.8765 18.1758 20.9065 18.2931L20.5965 18.3322C18.9565 18.5472 16.6465 19.2116 14.7865 19.9739C14.1365 20.2377 13.4165 19.7589 13.4165 19.0651V5.4723C13.4165 5.11074 13.6265 4.77849 13.9565 4.6026C15.7865 3.63518 18.5565 2.77525 20.4365 2.6189H20.4965C21.6965 2.6189 22.6665 3.56677 22.6665 4.73941Z" fill="#23408F"/>
<path d="M11.3765 4.6026C9.54649 3.63518 6.77649 2.77525 4.89649 2.6189H4.82649C3.62649 2.6189 2.65649 3.56677 2.65649 4.73941V16.3582C2.65649 17.3061 3.44649 18.1758 4.41649 18.2931L4.72649 18.3322C6.36649 18.5472 8.67649 19.2116 10.5365 19.9739C11.1865 20.2377 11.9065 19.7589 11.9065 19.0651V5.4723C11.9065 5.10097 11.7065 4.77849 11.3765 4.6026ZM5.66649 7.5635H7.91649C8.32649 7.5635 8.66649 7.89574 8.66649 8.29639C8.66649 8.70681 8.32649 9.02929 7.91649 9.02929H5.66649C5.25649 9.02929 4.91649 8.70681 4.91649 8.29639C4.91649 7.89574 5.25649 7.5635 5.66649 7.5635ZM8.66649 11.9609H5.66649C5.25649 11.9609 4.91649 11.6384 4.91649 11.228C4.91649 10.8273 5.25649 10.4951 5.66649 10.4951H8.66649C9.07649 10.4951 9.41649 10.8273 9.41649 11.228C9.41649 11.6384 9.07649 11.9609 8.66649 11.9609Z" fill="#23408F"/>
</svg>
