<svg width="30" height="30" viewBox="0 0 30 30" fill="none" xmlns="http://www.w3.org/2000/svg">
<path d="M20.7188 22.0124H23.3536L22.042 18.5376L20.7188 22.0124Z" fill="#23408F"/>
<path d="M28.125 14.2965H15.9375C15.5025 14.297 15.0855 14.4701 14.778 14.7776C14.4704 15.0852 14.2974 15.5022 14.2969 15.9371V25.3121C14.2974 25.7471 14.4704 26.1641 14.778 26.4717C15.0855 26.7792 15.5025 26.9522 15.9375 26.9528H22.2871L26.3287 29.6471C26.4346 29.7176 26.5577 29.758 26.6848 29.7641C26.8118 29.7702 26.9382 29.7417 27.0503 29.6817C27.1625 29.6217 27.2563 29.5323 27.3217 29.4232C27.3871 29.3141 27.4217 29.1893 27.4219 29.0621V26.9528H28.125C28.56 26.9522 28.977 26.7792 29.2845 26.4717C29.5921 26.1641 29.7651 25.7471 29.7656 25.3121V15.9371C29.7651 15.5022 29.5921 15.0852 29.2845 14.7776C28.977 14.4701 28.56 14.297 28.125 14.2965ZM25.3358 25.2746C25.1614 25.3403 24.968 25.3341 24.7981 25.2573C24.6282 25.1804 24.4958 25.0393 24.4299 24.8649L23.8842 23.4188H20.1833L19.6317 24.8672C19.5652 25.0414 19.4323 25.1821 19.2622 25.2584C19.092 25.3346 18.8986 25.3401 18.7244 25.2737C18.5501 25.2073 18.4094 25.0744 18.3332 24.9042C18.257 24.7341 18.2515 24.5406 18.3179 24.3664L21.2251 16.7332C21.2885 16.5694 21.3995 16.4284 21.5438 16.3283C21.6882 16.2282 21.8591 16.1736 22.0347 16.1716C22.2104 16.1696 22.3825 16.2202 22.5291 16.317C22.6757 16.4137 22.7899 16.5522 22.8571 16.7145L25.7455 24.3687C25.7782 24.4551 25.7934 24.5471 25.7905 24.6393C25.7876 24.7316 25.7665 24.8224 25.7284 24.9066C25.6904 24.9907 25.6361 25.0665 25.5688 25.1296C25.5014 25.1928 25.4223 25.2421 25.3358 25.2746Z" fill="#23408F"/>
<path d="M28.125 0.234009H1.875C1.44004 0.234535 1.02305 0.407555 0.715484 0.715118C0.407921 1.02268 0.234901 1.43967 0.234375 1.87463V21.5621C0.234901 21.9971 0.407921 22.4141 0.715484 22.7217C1.02305 23.0292 1.44004 23.2022 1.875 23.2028H3.04688V26.7184C3.04708 26.8514 3.08498 26.9816 3.15618 27.094C3.22738 27.2063 3.32896 27.2962 3.44915 27.3531C3.56934 27.4101 3.70321 27.4318 3.83525 27.4158C3.96729 27.3998 4.09209 27.3467 4.19518 27.2627L9.15733 23.2028H12.1875C12.374 23.2028 12.5528 23.1287 12.6847 22.9968C12.8165 22.865 12.8906 22.6861 12.8906 22.4996C12.8906 22.3132 12.8165 22.1343 12.6847 22.0025C12.5528 21.8706 12.374 21.7965 12.1875 21.7965H8.90625C8.74399 21.7966 8.58674 21.8527 8.46107 21.9554L4.45312 25.2348V22.4996C4.45311 22.3131 4.37903 22.1343 4.24717 22.0024C4.11531 21.8706 3.93648 21.7965 3.75 21.7965H1.875C1.81286 21.7964 1.7533 21.7717 1.70936 21.7278C1.66542 21.6838 1.64071 21.6243 1.64062 21.5621V1.87461C1.64067 1.81247 1.66537 1.75288 1.70932 1.70893C1.75326 1.66499 1.81285 1.64028 1.875 1.64024H28.125C28.1871 1.64032 28.2467 1.66504 28.2906 1.70898C28.3346 1.75291 28.3593 1.81248 28.3594 1.87461V12.1871C28.3594 12.3736 28.4335 12.5524 28.5653 12.6843C28.6972 12.8162 28.876 12.8902 29.0625 12.8902C29.249 12.8902 29.4278 12.8162 29.5597 12.6843C29.6915 12.5524 29.7656 12.3736 29.7656 12.1871V1.87461C29.7651 1.43966 29.5921 1.02267 29.2845 0.715111C28.9769 0.407552 28.56 0.234535 28.125 0.234009Z" fill="black"/>
<path d="M8.90625 3.04651C7.74738 3.04651 6.61453 3.39016 5.65096 4.03399C4.68739 4.67783 3.93638 5.59294 3.4929 6.6636C3.04941 7.73426 2.93338 8.91238 3.15946 10.049C3.38555 11.1856 3.9436 12.2296 4.76305 13.0491C5.5825 13.8685 6.62654 14.4266 7.76315 14.6527C8.89975 14.8788 10.0779 14.7627 11.1485 14.3192C12.2192 13.8758 13.1343 13.1247 13.7781 12.1612C14.422 11.1976 14.7656 10.0648 14.7656 8.90588C14.7639 7.35242 14.146 5.86308 13.0475 4.76461C11.9491 3.66614 10.4597 3.04826 8.90625 3.04651ZM13.2983 8.20276H11.4656C11.4314 7.07989 11.2257 5.96885 10.8555 4.90821C11.4966 5.22175 12.0531 5.68462 12.4782 6.25792C12.9033 6.83122 13.1845 7.49818 13.2983 8.20276ZM8.90707 13.359H8.90687C8.59622 13.322 7.87797 11.9741 7.75454 9.60901H10.058C9.93459 11.974 9.2165 13.322 8.90705 13.359H8.90707ZM7.75453 8.20276C7.87793 5.83775 8.59601 4.48979 8.90547 4.45279H8.90567C9.21632 4.48975 9.93457 5.83769 10.058 8.20276H7.75453ZM6.95705 4.90821C6.58686 5.96885 6.38111 7.07989 6.34694 8.20276H4.51418C4.62796 7.49818 4.90921 6.83122 5.3343 6.25792C5.75939 5.68462 6.31589 5.22175 6.95704 4.90821H6.95705ZM4.51418 9.60901H6.34692C6.3811 10.7319 6.58685 11.8429 6.95704 12.9036C6.31589 12.59 5.75939 12.1271 5.3343 11.5539C4.90921 10.9806 4.62796 10.3136 4.51418 9.60901ZM10.8555 12.9036C11.2257 11.8429 11.4314 10.7319 11.4656 9.60901H13.2983C13.1845 10.3136 12.9033 10.9806 12.4782 11.5539C12.0531 12.1271 11.4966 12.59 10.8555 12.9036Z" fill="black"/>
<path d="M26.25 3.04651H16.4062C16.2198 3.04651 16.0409 3.12059 15.9091 3.25245C15.7772 3.38431 15.7031 3.56315 15.7031 3.74963C15.7031 3.93611 15.7772 4.11496 15.9091 4.24682C16.0409 4.37868 16.2198 4.45276 16.4062 4.45276H26.25C26.4365 4.45276 26.6153 4.37868 26.7472 4.24682C26.879 4.11496 26.9531 3.93611 26.9531 3.74963C26.9531 3.56315 26.879 3.38431 26.7472 3.25245C26.6153 3.12059 26.4365 3.04651 26.25 3.04651Z" fill="black"/>
<path d="M26.25 6.79651H16.875C16.6885 6.79651 16.5097 6.87059 16.3778 7.00245C16.246 7.13431 16.1719 7.31315 16.1719 7.49963C16.1719 7.68611 16.246 7.86496 16.3778 7.99682C16.5097 8.12868 16.6885 8.20276 16.875 8.20276H26.25C26.4365 8.20276 26.6153 8.12868 26.7472 7.99682C26.879 7.86496 26.9531 7.68611 26.9531 7.49963C26.9531 7.31315 26.879 7.13431 26.7472 7.00245C26.6153 6.87059 26.4365 6.79651 26.25 6.79651Z" fill="black"/>
<path d="M26.25 10.5465H22.0312C21.8448 10.5465 21.6659 10.6206 21.5341 10.7524C21.4022 10.8843 21.3281 11.0632 21.3281 11.2496C21.3281 11.4361 21.4022 11.615 21.5341 11.7468C21.6659 11.8787 21.8448 11.9528 22.0312 11.9528H26.25C26.4365 11.9528 26.6153 11.8787 26.7472 11.7468C26.879 11.615 26.9531 11.4361 26.9531 11.2496C26.9531 11.0632 26.879 10.8843 26.7472 10.7524C26.6153 10.6206 26.4365 10.5465 26.25 10.5465Z" fill="black"/>
<path d="M12.8906 16.8746C12.8906 16.6882 12.8165 16.5093 12.6847 16.3775C12.5528 16.2456 12.374 16.1715 12.1875 16.1715H3.75C3.56352 16.1715 3.38468 16.2456 3.25282 16.3775C3.12095 16.5093 3.04688 16.6882 3.04688 16.8746C3.04688 17.0611 3.12095 17.24 3.25282 17.3718C3.38468 17.5037 3.56352 17.5778 3.75 17.5778H12.1875C12.374 17.5778 12.5528 17.5037 12.6847 17.3718C12.8165 17.24 12.8906 17.0611 12.8906 16.8746Z" fill="black"/>
<path d="M3.75 18.984C3.56352 18.984 3.38468 19.0581 3.25282 19.19C3.12095 19.3218 3.04688 19.5007 3.04688 19.6871C3.04688 19.8736 3.12095 20.0525 3.25282 20.1843C3.38468 20.3162 3.56352 20.3903 3.75 20.3903H9.375C9.56148 20.3903 9.74032 20.3162 9.87218 20.1843C10.004 20.0525 10.0781 19.8736 10.0781 19.6871C10.0781 19.5007 10.004 19.3218 9.87218 19.19C9.74032 19.0581 9.56148 18.984 9.375 18.984H3.75Z" fill="black"/>
</svg>
