<svg width="30" height="30" viewBox="0 0 30 30" fill="none" xmlns="http://www.w3.org/2000/svg">
<path d="M22.0312 0.234375H3.74203C2.81101 0.236485 1.91884 0.607812 1.26126 1.26689C0.603674 1.92597 0.234373 2.81898 0.234375 3.75V28.125C0.234375 28.5601 0.407226 28.9774 0.714903 29.2851C1.02258 29.5928 1.43988 29.7656 1.875 29.7656H12.1875C12.374 29.7656 12.5528 29.6915 12.6847 29.5597C12.8165 29.4278 12.8906 29.249 12.8906 29.0625C12.8906 28.876 12.8165 28.6972 12.6847 28.5653C12.5528 28.4335 12.374 28.3594 12.1875 28.3594H1.875C1.81284 28.3594 1.75323 28.3347 1.70927 28.2907C1.66532 28.2468 1.64062 28.1872 1.64062 28.125V3.75C1.64049 3.46738 1.69715 3.18762 1.80723 2.92733C1.91732 2.66703 2.07859 2.43151 2.28147 2.23476C2.48434 2.038 2.72469 1.88402 2.98823 1.78196C3.25178 1.67989 3.53315 1.63183 3.81563 1.64062C4.37732 1.67754 4.90316 1.92955 5.28381 2.34424C5.66445 2.75894 5.8706 3.3044 5.85938 3.86719V7.03125C5.85938 7.46637 6.03223 7.88367 6.3399 8.19135C6.64758 8.49902 7.06488 8.67188 7.5 8.67188H21.3281V17.8125C21.3281 17.999 21.4022 18.1778 21.5341 18.3097C21.6659 18.4415 21.8448 18.5156 22.0312 18.5156C22.2177 18.5156 22.3966 18.4415 22.5284 18.3097C22.6603 18.1778 22.7344 17.999 22.7344 17.8125V8.67188H23.9062C24.3414 8.67188 24.7587 8.49902 25.0663 8.19135C25.374 7.88367 25.5469 7.46637 25.5469 7.03125V3.75C25.5459 2.8179 25.1752 1.92427 24.5161 1.26517C23.857 0.606082 22.9633 0.235368 22.0312 0.234375ZM24.1406 7.03125C24.1406 7.09341 24.1159 7.15302 24.072 7.19698C24.028 7.24093 23.9684 7.26562 23.9062 7.26562H7.5C7.43784 7.26562 7.37823 7.24093 7.33427 7.19698C7.29032 7.15302 7.26562 7.09341 7.26562 7.03125V3.86812C7.26531 3.06369 7.00192 2.28143 6.51562 1.64062H22.0312C22.5905 1.64125 23.1267 1.86368 23.5221 2.25913C23.9176 2.65458 24.14 3.19075 24.1406 3.75V7.03125Z" fill="black"/>
<path d="M12.1875 19.9219H3.75C3.56352 19.9219 3.38468 19.996 3.25282 20.1278C3.12095 20.2597 3.04688 20.4385 3.04688 20.625C3.04688 20.8115 3.12095 20.9903 3.25282 21.1222C3.38468 21.254 3.56352 21.3281 3.75 21.3281H12.1875C12.374 21.3281 12.5528 21.254 12.6847 21.1222C12.8165 20.9903 12.8906 20.8115 12.8906 20.625C12.8906 20.4385 12.8165 20.2597 12.6847 20.1278C12.5528 19.996 12.374 19.9219 12.1875 19.9219Z" fill="black"/>
<path d="M12.1875 24.1406H3.75C3.56352 24.1406 3.38468 24.2147 3.25282 24.3466C3.12095 24.4784 3.04688 24.6573 3.04688 24.8438C3.04688 25.0302 3.12095 25.2091 3.25282 25.3409C3.38468 25.4728 3.56352 25.5469 3.75 25.5469H12.1875C12.374 25.5469 12.5528 25.4728 12.6847 25.3409C12.8165 25.2091 12.8906 25.0302 12.8906 24.8438C12.8906 24.6573 12.8165 24.4784 12.6847 24.3466C12.5528 24.2147 12.374 24.1406 12.1875 24.1406Z" fill="black"/>
<path d="M12.1875 15.7031H3.75C3.56352 15.7031 3.38468 15.7772 3.25282 15.9091C3.12095 16.0409 3.04688 16.2198 3.04688 16.4062C3.04688 16.5927 3.12095 16.7716 3.25282 16.9034C3.38468 17.0353 3.56352 17.1094 3.75 17.1094H12.1875C12.374 17.1094 12.5528 17.0353 12.6847 16.9034C12.8165 16.7716 12.8906 16.5927 12.8906 16.4062C12.8906 16.2198 12.8165 16.0409 12.6847 15.9091C12.5528 15.7772 12.374 15.7031 12.1875 15.7031Z" fill="black"/>
<path d="M19.2188 11.4844H3.75C3.56352 11.4844 3.38468 11.5585 3.25282 11.6903C3.12095 11.8222 3.04688 12.001 3.04688 12.1875C3.04688 12.374 3.12095 12.5528 3.25282 12.6847C3.38468 12.8165 3.56352 12.8906 3.75 12.8906H19.2188C19.4052 12.8906 19.5841 12.8165 19.7159 12.6847C19.8478 12.5528 19.9219 12.374 19.9219 12.1875C19.9219 12.001 19.8478 11.8222 19.7159 11.6903C19.5841 11.5585 19.4052 11.4844 19.2188 11.4844Z" fill="black"/>
<path d="M28.5938 14.2969H26.7188C26.4079 14.2969 26.1099 14.4203 25.8901 14.6401C25.6703 14.8599 25.5469 15.1579 25.5469 15.4688V28.3594H24.1406V21.0938C24.1406 20.7829 24.0172 20.4849 23.7974 20.2651C23.5776 20.0453 23.2796 19.9219 22.9688 19.9219H21.0938C20.7829 19.9219 20.4849 20.0453 20.2651 20.2651C20.0453 20.4849 19.9219 20.7829 19.9219 21.0938V28.3594H18.5156V18.2812C18.5156 17.9704 18.3922 17.6724 18.1724 17.4526C17.9526 17.2328 17.6546 17.1094 17.3438 17.1094H15.4688C15.1579 17.1094 14.8599 17.2328 14.6401 17.4526C14.4203 17.6724 14.2969 17.9704 14.2969 18.2812V29.0625C14.2969 29.249 14.371 29.4278 14.5028 29.5597C14.6347 29.6915 14.8135 29.7656 15 29.7656H29.0625C29.249 29.7656 29.4278 29.6915 29.5597 29.5597C29.6915 29.4278 29.7656 29.249 29.7656 29.0625V15.4688C29.7656 15.1579 29.6422 14.8599 29.4224 14.6401C29.2026 14.4203 28.9046 14.2969 28.5938 14.2969Z" fill="#23408F"/>
</svg>
