<svg width="30" height="30" viewBox="0 0 30 30" fill="none" xmlns="http://www.w3.org/2000/svg">
<path d="M27.3942 4.01562L15.2067 0.265618C15.072 0.223961 14.928 0.223961 14.7933 0.265618L2.60582 4.01562C2.46208 4.0598 2.33629 4.14891 2.24693 4.26986C2.15758 4.39081 2.10936 4.53723 2.10938 4.68761V14.3079C2.11348 17.9628 3.38859 21.5025 5.71618 24.3203C8.04377 27.1382 11.2789 29.0588 14.8673 29.7531C14.955 29.7698 15.045 29.7698 15.1327 29.7531C18.7211 29.0588 21.9562 27.1382 24.2838 24.3203C26.6114 21.5025 27.8865 17.9628 27.8906 14.3079V4.68761C27.8906 4.53723 27.8424 4.39081 27.7531 4.26986C27.6637 4.14891 27.5379 4.0598 27.3942 4.01562ZM26.4844 14.3079C26.4805 17.4889 25.4192 20.5783 23.4675 23.0902C21.5158 25.6021 18.7845 27.3938 15.7031 28.1837V24.8436C15.7031 24.6571 15.629 24.4782 15.4972 24.3464C15.3653 24.2145 15.1865 24.1404 15 24.1404C14.8135 24.1404 14.6347 24.2145 14.5028 24.3464C14.371 24.4782 14.2969 24.6571 14.2969 24.8436V28.1837C11.2155 27.3938 8.48417 25.6021 6.53249 23.0902C4.5808 20.5783 3.51953 17.4889 3.51562 14.3079V5.20694L14.2969 1.8896V5.15567C14.2969 5.34215 14.371 5.521 14.5028 5.65286C14.6347 5.78472 14.8135 5.8588 15 5.8588C15.1865 5.8588 15.3653 5.78472 15.4972 5.65286C15.629 5.521 15.7031 5.34215 15.7031 5.15567V1.8896L26.4844 5.20694V14.3079Z" fill="black"/>
<path d="M14.9999 7.26575C13.4702 7.26575 11.9749 7.71937 10.703 8.56923C9.43108 9.4191 8.43975 10.627 7.85436 12.0403C7.26897 13.4536 7.11581 15.0087 7.41425 16.509C7.71268 18.0093 8.44931 19.3874 9.53098 20.4691C10.6126 21.5508 11.9908 22.2874 13.4911 22.5858C14.9914 22.8843 16.5465 22.7311 17.9598 22.1457C19.3731 21.5603 20.581 20.569 21.4309 19.2971C22.2807 18.0252 22.7343 16.5298 22.7343 15.0001C22.732 12.9495 21.9164 10.9836 20.4664 9.53364C19.0164 8.08367 17.0505 7.26806 14.9999 7.26575ZM18.7516 13.4133L14.0641 17.632C13.9929 17.6961 13.9093 17.745 13.8186 17.7756C13.7279 17.8062 13.6318 17.818 13.5364 17.8102C13.4409 17.8024 13.348 17.7752 13.2635 17.7302C13.1789 17.6853 13.1044 17.6235 13.0446 17.5487L11.1696 15.205C11.0531 15.0593 10.9993 14.8734 11.0199 14.688C11.0405 14.5027 11.1339 14.3331 11.2795 14.2166C11.4251 14.1002 11.611 14.0463 11.7964 14.0669C11.9817 14.0875 12.1513 14.1809 12.2678 14.3265L13.6772 16.0884L17.8108 12.3682C17.9494 12.2435 18.1319 12.1789 18.3181 12.1887C18.5043 12.1985 18.679 12.2818 18.8037 12.4204C18.9285 12.559 18.9931 12.7414 18.9833 12.9276C18.9735 13.1138 18.8901 13.2885 18.7516 13.4133V13.4133Z" fill="#23408F"/>
</svg>
