<svg width="30" height="30" viewBox="0 0 30 30" fill="none" xmlns="http://www.w3.org/2000/svg">
<path d="M23.9062 6.79688H9.84375C9.75141 6.79686 9.65997 6.81504 9.57466 6.85037C9.48935 6.8857 9.41183 6.93749 9.34653 7.00278C9.28124 7.06808 9.22945 7.1456 9.19412 7.23091C9.15879 7.31622 9.14061 7.40766 9.14063 7.5V15.9375C9.14061 16.0298 9.15879 16.1213 9.19412 16.2066C9.22945 16.2919 9.28124 16.3694 9.34653 16.4347C9.41183 16.5 9.48935 16.5518 9.57466 16.5871C9.65997 16.6225 9.75141 16.6406 9.84375 16.6406H23.9062C23.9986 16.6406 24.09 16.6225 24.1753 16.5871C24.2607 16.5518 24.3382 16.5 24.4035 16.4347C24.4688 16.3694 24.5206 16.2919 24.5559 16.2066C24.5912 16.1213 24.6094 16.0298 24.6094 15.9375V7.5C24.6094 7.40766 24.5912 7.31622 24.5559 7.23091C24.5206 7.1456 24.4688 7.06808 24.4035 7.00278C24.3382 6.93749 24.2607 6.8857 24.1753 6.85037C24.09 6.81504 23.9986 6.79686 23.9062 6.79688V6.79688ZM21.5625 14.0625H12.1875C12.001 14.0625 11.8222 13.9884 11.6903 13.8566C11.5585 13.7247 11.4844 13.5459 11.4844 13.3594C11.4844 13.1729 11.5585 12.9941 11.6903 12.8622C11.8222 12.7303 12.001 12.6562 12.1875 12.6562H21.5625C21.749 12.6562 21.9278 12.7303 22.0597 12.8622C22.1915 12.9941 22.2656 13.1729 22.2656 13.3594C22.2656 13.5459 22.1915 13.7247 22.0597 13.8566C21.9278 13.9884 21.749 14.0625 21.5625 14.0625ZM21.5625 10.7812H12.1875C12.001 10.7812 11.8222 10.7072 11.6903 10.5753C11.5585 10.4434 11.4844 10.2646 11.4844 10.0781C11.4844 9.89164 11.5585 9.7128 11.6903 9.58094C11.8222 9.44908 12.001 9.375 12.1875 9.375H21.5625C21.749 9.375 21.9278 9.44908 22.0597 9.58094C22.1915 9.7128 22.2656 9.89164 22.2656 10.0781C22.2656 10.2646 22.1915 10.4434 22.0597 10.5753C21.9278 10.7072 21.749 10.7812 21.5625 10.7812Z" fill="#23408F"/>
<path d="M24.375 0.234375H3.75C3.31504 0.234901 2.89805 0.407921 2.59048 0.715484C2.28292 1.02305 2.1099 1.44004 2.10938 1.875V28.125C2.1099 28.56 2.28292 28.977 2.59048 29.2845C2.89805 29.5921 3.31504 29.7651 3.75 29.7656H24.375C25.3071 29.7646 26.2007 29.3939 26.8598 28.7348C27.5189 28.0757 27.8896 27.1821 27.8906 26.25V3.75C27.8896 2.81791 27.5189 1.92429 26.8598 1.2652C26.2007 0.606114 25.3071 0.235392 24.375 0.234375V0.234375ZM3.51562 28.125V1.875C3.51567 1.81285 3.54037 1.75326 3.58432 1.70932C3.62826 1.66537 3.68785 1.64067 3.75 1.64062H5.94472L5.94386 28.3594H3.75C3.68785 28.3593 3.62826 28.3346 3.58432 28.2907C3.54037 28.2467 3.51567 28.1871 3.51562 28.125ZM26.4844 26.25C26.4838 26.8093 26.2613 27.3454 25.8659 27.7409C25.4704 28.1363 24.9343 28.3588 24.375 28.3594H7.35011L7.35097 1.64062H24.375C24.9343 1.64123 25.4704 1.86367 25.8659 2.25912C26.2613 2.65457 26.4838 3.19075 26.4844 3.75V26.25Z" fill="black"/>
<path d="M22.0312 21.7969H11.7188C11.5323 21.7969 11.3534 21.871 11.2216 22.0028C11.0897 22.1347 11.0156 22.3135 11.0156 22.5C11.0156 22.6865 11.0897 22.8653 11.2216 22.9972C11.3534 23.129 11.5323 23.2031 11.7188 23.2031H22.0312C22.2177 23.2031 22.3966 23.129 22.5284 22.9972C22.6603 22.8653 22.7344 22.6865 22.7344 22.5C22.7344 22.3135 22.6603 22.1347 22.5284 22.0028C22.3966 21.871 22.2177 21.7969 22.0312 21.7969Z" fill="black"/>
<path d="M14.0625 19.9219H19.6875C19.874 19.9219 20.0528 19.8478 20.1847 19.7159C20.3165 19.5841 20.3906 19.4052 20.3906 19.2188C20.3906 19.0323 20.3165 18.8534 20.1847 18.7216C20.0528 18.5897 19.874 18.5156 19.6875 18.5156H14.0625C13.876 18.5156 13.6972 18.5897 13.5653 18.7216C13.4335 18.8534 13.3594 19.0323 13.3594 19.2188C13.3594 19.4052 13.4335 19.5841 13.5653 19.7159C13.6972 19.8478 13.876 19.9219 14.0625 19.9219Z" fill="black"/>
</svg>
