<svg width="30" height="30" viewBox="0 0 30 30" fill="none" xmlns="http://www.w3.org/2000/svg">
<path d="M23.2029 0.234375H2.57812C2.01887 0.234983 1.4827 0.457415 1.08724 0.852868C0.69179 1.24832 0.469358 1.7845 0.46875 2.34375V27.6562C0.469358 28.2155 0.69179 28.7517 1.08724 29.1471C1.4827 29.5426 2.01887 29.765 2.57812 29.7656H19.2186C19.4051 29.7656 19.5839 29.6915 19.7158 29.5597C19.8476 29.4278 19.9217 29.249 19.9217 29.0625C19.9217 28.876 19.8476 28.6972 19.7158 28.5653C19.5839 28.4335 19.4051 28.3594 19.2186 28.3594H2.57812C2.39171 28.3592 2.21298 28.285 2.08116 28.1532C1.94935 28.0214 1.8752 27.8427 1.875 27.6562V2.34375C1.8752 2.15733 1.94935 1.97861 2.08116 1.84679C2.21298 1.71497 2.39171 1.64083 2.57812 1.64062H23.2029C23.3894 1.64083 23.5681 1.71497 23.6999 1.84679C23.8317 1.97861 23.9059 2.15733 23.9061 2.34375V12.4219C23.9061 12.6084 23.9801 12.7872 24.112 12.9191C24.2439 13.0509 24.4227 13.125 24.6092 13.125C24.7957 13.125 24.9745 13.0509 25.1064 12.9191C25.2382 12.7872 25.3123 12.6084 25.3123 12.4219V2.34375C25.3117 1.7845 25.0893 1.24832 24.6938 0.852868C24.2984 0.457415 23.7622 0.234983 23.2029 0.234375Z" fill="black"/>
<path d="M21.7967 6.79688C20.9889 6.79594 20.2145 6.47463 19.6433 5.90343C19.0721 5.33223 18.7508 4.55779 18.7499 3.75C18.7499 3.65766 18.7317 3.56622 18.6964 3.48091C18.661 3.39559 18.6092 3.31808 18.5439 3.25278C18.4787 3.18749 18.4011 3.1357 18.3158 3.10037C18.2305 3.06504 18.1391 3.04686 18.0467 3.04688H7.73432C7.64198 3.04686 7.55054 3.06504 7.46523 3.10037C7.37991 3.1357 7.3024 3.18749 7.2371 3.25278C7.17181 3.31808 7.12002 3.39559 7.08469 3.48091C7.04936 3.56622 7.03118 3.65766 7.03119 3.75C7.03026 4.55779 6.70896 5.33223 6.13777 5.90343C5.56657 6.47463 4.79213 6.79594 3.98434 6.79688C3.89201 6.79686 3.80057 6.81504 3.71526 6.85038C3.62995 6.88571 3.55244 6.9375 3.48715 7.00279C3.42186 7.06809 3.37007 7.1456 3.33474 7.23092C3.29941 7.31623 3.28124 7.40766 3.28125 7.5V22.5C3.28126 22.6865 3.35534 22.8653 3.4872 22.9972C3.61906 23.129 3.7979 23.2031 3.98438 23.2031C4.79217 23.2041 5.56662 23.5254 6.13781 24.0966C6.70901 24.6678 7.03032 25.4422 7.03125 26.25C7.03126 26.4365 7.10534 26.6153 7.2372 26.7472C7.36906 26.879 7.5479 26.9531 7.73438 26.9531H18.0467C18.2332 26.9531 18.4121 26.879 18.5439 26.7472C18.6758 26.6153 18.7499 26.4365 18.7499 26.25C18.7495 25.508 19.0202 24.7914 19.5111 24.2349C19.5722 24.1657 19.619 24.0851 19.649 23.9978C19.6789 23.9105 19.6913 23.8181 19.6856 23.726C19.6798 23.6338 19.656 23.5437 19.6154 23.4608C19.5748 23.3779 19.5183 23.3038 19.4491 23.2427C19.3799 23.1817 19.2993 23.1348 19.212 23.1049C19.1246 23.0749 19.0323 23.0625 18.9401 23.0682C18.848 23.074 18.7579 23.0979 18.675 23.1384C18.5921 23.179 18.518 23.2355 18.4569 23.3048C17.8989 23.9368 17.5321 24.7144 17.3992 25.5469H8.38205C8.23233 24.621 7.79484 23.7658 7.13167 23.1027C6.46849 22.4395 5.61331 22.002 4.68747 21.8523V8.14774C5.61333 7.99805 6.46853 7.56057 7.13171 6.89738C7.79489 6.23419 8.23236 5.37899 8.38205 4.45312H17.399C17.5487 5.37899 17.9862 6.23419 18.6493 6.89738C19.3125 7.56057 20.1677 7.99805 21.0936 8.14774V13.125C21.0936 13.3115 21.1677 13.4903 21.2995 13.6222C21.4314 13.754 21.6102 13.8281 21.7967 13.8281C21.9832 13.8281 22.162 13.754 22.2939 13.6222C22.4258 13.4903 22.4998 13.3115 22.4998 13.125V7.5C22.4998 7.40766 22.4817 7.31622 22.4463 7.23091C22.411 7.14559 22.3592 7.06808 22.2939 7.00278C22.2286 6.93749 22.1511 6.8857 22.0658 6.85037C21.9805 6.81504 21.889 6.79686 21.7967 6.79688Z" fill="black"/>
<path d="M15.2343 8.67188C15.4208 8.67188 15.5997 8.5978 15.7315 8.46593C15.8634 8.33407 15.9375 8.15523 15.9375 7.96875C15.9375 7.78227 15.8634 7.60343 15.7315 7.47157C15.5997 7.3397 15.4208 7.26563 15.2343 7.26562H10.5469C10.3604 7.26563 10.1816 7.3397 10.0497 7.47157C9.91783 7.60343 9.84375 7.78227 9.84375 7.96875C9.84375 8.15523 9.91783 8.33407 10.0497 8.46593C10.1816 8.5978 10.3604 8.67188 10.5469 8.67188H15.2343Z" fill="black"/>
<path d="M18.5155 10.5469H7.26562C7.07914 10.5469 6.9003 10.621 6.76844 10.7528C6.63658 10.8847 6.5625 11.0635 6.5625 11.25C6.5625 11.4365 6.63658 11.6153 6.76844 11.7472C6.9003 11.879 7.07914 11.9531 7.26562 11.9531H18.5155C18.702 11.9531 18.8809 11.879 19.0127 11.7472C19.1446 11.6153 19.2187 11.4365 19.2187 11.25C19.2187 11.0635 19.1446 10.8847 19.0127 10.7528C18.8809 10.621 18.702 10.5469 18.5155 10.5469Z" fill="black"/>
<path d="M19.2187 14.5312C19.2187 14.4389 19.2005 14.3475 19.1652 14.2622C19.1298 14.1768 19.078 14.0993 19.0127 14.034C18.9475 13.9687 18.8699 13.9169 18.7846 13.8816C18.6993 13.8463 18.6079 13.8281 18.5155 13.8281H7.26563C7.07914 13.8281 6.9003 13.9022 6.76844 14.0341C6.63658 14.1659 6.5625 14.3448 6.5625 14.5312C6.5625 14.7177 6.63658 14.8966 6.76844 15.0284C6.9003 15.1603 7.07914 15.2344 7.26563 15.2344H18.5155C18.6079 15.2344 18.6993 15.2162 18.7846 15.1809C18.8699 15.1456 18.9475 15.0938 19.0128 15.0285C19.078 14.9632 19.1298 14.8857 19.1652 14.8003C19.2005 14.715 19.2187 14.6236 19.2187 14.5312Z" fill="black"/>
<path d="M13.3871 22.5289C13.9689 21.9489 14.8501 21.3281 15.2342 21.3281C15.3573 21.3281 15.4658 21.7621 15.4685 22.0313C15.4685 22.2177 15.5426 22.3966 15.6745 22.5284C15.8063 22.6603 15.9852 22.7344 16.1717 22.7344C16.3581 22.7344 16.537 22.6603 16.6688 22.5284C16.8007 22.3966 16.8748 22.2177 16.8748 22.0313C16.8748 21.0155 16.3614 19.9219 15.2342 19.9219C14.623 19.9766 14.0398 20.2031 13.5519 20.5751C13.4487 20.2365 13.2353 19.9422 12.9456 19.7389C12.6558 19.5356 12.3064 19.435 11.9529 19.4531C10.1638 19.4531 9.09606 21.4852 8.98025 21.7168C8.89684 21.8836 8.88312 22.0767 8.94209 22.2536C9.00107 22.4306 9.12791 22.5768 9.29472 22.6602C9.46154 22.7436 9.65465 22.7574 9.83158 22.6984C10.0085 22.6394 10.1548 22.5126 10.2382 22.3457C10.4309 21.9603 11.1599 20.8594 11.9529 20.8594C12.0651 20.8594 12.1376 20.8791 12.1679 20.9175C12.2851 21.2187 12.2994 21.5503 12.2084 21.8605C12.1717 22.0095 12.1846 22.1664 12.2453 22.3073C12.306 22.4482 12.4111 22.5655 12.5446 22.6411C12.6781 22.7168 12.8326 22.7468 12.9847 22.7265C13.1368 22.7063 13.2781 22.6368 13.3871 22.5289Z" fill="black"/>
<path d="M24.375 14.2954C23.3551 14.2954 22.3582 14.5977 21.5101 15.1643C20.6621 15.7309 20.0012 16.5362 19.6108 17.4785C19.2205 18.4207 19.1184 19.4575 19.3173 20.4578C19.5163 21.4581 20.0074 22.3769 20.7285 23.0981C21.4497 23.8192 22.3685 24.3103 23.3688 24.5093C24.3691 24.7083 25.4059 24.6061 26.3481 24.2158C27.2904 23.8255 28.0957 23.1646 28.6623 22.3165C29.2289 21.4685 29.5313 20.4715 29.5312 19.4517C29.5297 18.0846 28.986 16.774 28.0193 15.8073C27.0527 14.8407 25.7421 14.2969 24.375 14.2954ZM24.375 21.0922C24.0506 21.0922 23.7334 20.9961 23.4637 20.8158C23.1939 20.6356 22.9836 20.3794 22.8594 20.0797C22.7353 19.7799 22.7028 19.4501 22.7661 19.1319C22.8294 18.8137 22.9856 18.5214 23.215 18.292C23.4444 18.0626 23.7367 17.9063 24.0549 17.843C24.3731 17.7797 24.7029 17.8122 25.0026 17.9364C25.3024 18.0605 25.5586 18.2708 25.7388 18.5405C25.9191 18.8103 26.0153 19.1274 26.0153 19.4519C26.0153 19.8869 25.8425 20.3041 25.5349 20.6118C25.2273 20.9194 24.8101 21.0922 24.375 21.0922Z" fill="#23408F"/>
<path d="M21.3284 25.2593V29.0615C21.3285 29.1859 21.3616 29.308 21.4243 29.4155C21.487 29.5229 21.577 29.6118 21.6853 29.6731C21.7935 29.7344 21.9161 29.7658 22.0405 29.7643C22.1648 29.7628 22.2866 29.7283 22.3933 29.6644L24.3751 28.4751L26.3569 29.6644C26.4636 29.7283 26.5853 29.7628 26.7097 29.7643C26.8341 29.7658 26.9567 29.7344 27.0649 29.6731C27.1732 29.6118 27.2632 29.5229 27.3259 29.4155C27.3886 29.308 27.4217 29.1859 27.4218 29.0615V25.2593C26.4829 25.7553 25.437 26.0146 24.3751 26.0146C23.3132 26.0146 22.2673 25.7553 21.3284 25.2593Z" fill="#23408F"/>
</svg>
