<svg width="30" height="30" viewBox="0 0 30 30" fill="none" xmlns="http://www.w3.org/2000/svg">
<path d="M28.125 2.57812H22.7344V0.9375C22.7344 0.75102 22.6603 0.572177 22.5284 0.440316C22.3966 0.308454 22.2177 0.234375 22.0312 0.234375C21.8448 0.234375 21.6659 0.308454 21.5341 0.440316C21.4022 0.572177 21.3281 0.75102 21.3281 0.9375V2.57812H15.7031V0.9375C15.7031 0.75102 15.629 0.572177 15.4972 0.440316C15.3653 0.308454 15.1865 0.234375 15 0.234375C14.8135 0.234375 14.6347 0.308454 14.5028 0.440316C14.371 0.572177 14.2969 0.75102 14.2969 0.9375V2.57812H8.67188V0.9375C8.67188 0.75102 8.5978 0.572177 8.46593 0.440316C8.33407 0.308454 8.15523 0.234375 7.96875 0.234375C7.78227 0.234375 7.60343 0.308454 7.47157 0.440316C7.3397 0.572177 7.26562 0.75102 7.26562 0.9375V2.57812H1.875C1.44004 2.57865 1.02305 2.75167 0.715484 3.05923C0.407921 3.3668 0.234901 3.78379 0.234375 4.21875V28.125C0.234901 28.56 0.407921 28.977 0.715484 29.2845C1.02305 29.5921 1.44004 29.7651 1.875 29.7656H28.125C28.56 29.7651 28.977 29.5921 29.2845 29.2845C29.5921 28.977 29.7651 28.56 29.7656 28.125V4.21875C29.7651 3.78379 29.5921 3.3668 29.2845 3.05923C28.977 2.75167 28.56 2.57865 28.125 2.57812ZM1.64062 4.21875C1.64071 4.15661 1.66542 4.09705 1.70936 4.05311C1.7533 4.00917 1.81286 3.98446 1.875 3.98438H7.26562V5.625C7.26562 5.81148 7.3397 5.99032 7.47157 6.12218C7.60343 6.25405 7.78227 6.32812 7.96875 6.32812C8.15523 6.32812 8.33407 6.25405 8.46593 6.12218C8.5978 5.99032 8.67188 5.81148 8.67188 5.625V3.98438H14.2969V5.625C14.2969 5.81148 14.371 5.99032 14.5028 6.12218C14.6347 6.25405 14.8135 6.32812 15 6.32812C15.1865 6.32812 15.3653 6.25405 15.4972 6.12218C15.629 5.99032 15.7031 5.81148 15.7031 5.625V3.98438H21.3281V5.625C21.3281 5.81148 21.4022 5.99032 21.5341 6.12218C21.6659 6.25405 21.8448 6.32812 22.0312 6.32812C22.2177 6.32812 22.3966 6.25405 22.5284 6.12218C22.6603 5.99032 22.7344 5.81148 22.7344 5.625V3.98438H28.125C28.1871 3.98446 28.2467 4.00917 28.2906 4.05311C28.3346 4.09705 28.3593 4.15661 28.3594 4.21875V8.67188H1.64062V4.21875ZM28.3594 28.125C28.3593 28.1871 28.3346 28.2467 28.2906 28.2906C28.2467 28.3346 28.1871 28.3593 28.125 28.3594H1.875C1.81286 28.3593 1.7533 28.3346 1.70936 28.2906C1.66542 28.2467 1.64071 28.1871 1.64062 28.125V10.0781H28.3594V28.125Z" fill="black"/>
<path d="M18.2812 13.3594H26.25C26.4365 13.3594 26.6153 13.2853 26.7472 13.1534C26.879 13.0216 26.9531 12.8427 26.9531 12.6562C26.9531 12.4698 26.879 12.2909 26.7472 12.1591C26.6153 12.0272 26.4365 11.9531 26.25 11.9531H18.2812C18.0948 11.9531 17.9159 12.0272 17.7841 12.1591C17.6522 12.2909 17.5781 12.4698 17.5781 12.6562C17.5781 12.8427 17.6522 13.0216 17.7841 13.1534C17.9159 13.2853 18.0948 13.3594 18.2812 13.3594Z" fill="black"/>
<path d="M26.25 15.2344H19.6875C19.501 15.2344 19.3222 15.3085 19.1903 15.4403C19.0585 15.5722 18.9844 15.751 18.9844 15.9375C18.9844 16.124 19.0585 16.3028 19.1903 16.4347C19.3222 16.5665 19.501 16.6406 19.6875 16.6406H26.25C26.4365 16.6406 26.6153 16.5665 26.7472 16.4347C26.879 16.3028 26.9531 16.124 26.9531 15.9375C26.9531 15.751 26.879 15.5722 26.7472 15.4403C26.6153 15.3085 26.4365 15.2344 26.25 15.2344Z" fill="black"/>
<path d="M26.25 18.5156H20.1562C19.9698 18.5156 19.7909 18.5897 19.6591 18.7216C19.5272 18.8534 19.4531 19.0323 19.4531 19.2188C19.4531 19.4052 19.5272 19.5841 19.6591 19.7159C19.7909 19.8478 19.9698 19.9219 20.1562 19.9219H26.25C26.4365 19.9219 26.6153 19.8478 26.7472 19.7159C26.879 19.5841 26.9531 19.4052 26.9531 19.2188C26.9531 19.0323 26.879 18.8534 26.7472 18.7216C26.6153 18.5897 26.4365 18.5156 26.25 18.5156Z" fill="black"/>
<path d="M26.25 21.7969H19.6875C19.501 21.7969 19.3222 21.871 19.1903 22.0028C19.0585 22.1347 18.9844 22.3135 18.9844 22.5C18.9844 22.6865 19.0585 22.8653 19.1903 22.9972C19.3222 23.129 19.501 23.2031 19.6875 23.2031H26.25C26.4365 23.2031 26.6153 23.129 26.7472 22.9972C26.879 22.8653 26.9531 22.6865 26.9531 22.5C26.9531 22.3135 26.879 22.1347 26.7472 22.0028C26.6153 21.871 26.4365 21.7969 26.25 21.7969Z" fill="black"/>
<path d="M18.2812 26.4844H26.25C26.4365 26.4844 26.6153 26.4103 26.7472 26.2784C26.879 26.1466 26.9531 25.9677 26.9531 25.7812C26.9531 25.5948 26.879 25.4159 26.7472 25.2841C26.6153 25.1522 26.4365 25.0781 26.25 25.0781H18.2812C18.0948 25.0781 17.9159 25.1522 17.7841 25.2841C17.6522 25.4159 17.5781 25.5948 17.5781 25.7812C17.5781 25.9677 17.6522 26.1466 17.7841 26.2784C17.9159 26.4103 18.0948 26.4844 18.2812 26.4844Z" fill="black"/>
<path d="M10.7813 11.4844C9.25154 11.4844 7.75618 11.938 6.48426 12.7879C5.21235 13.6377 4.22102 14.8457 3.63562 16.2589C3.05023 17.6722 2.89706 19.2273 3.19549 20.7277C3.49392 22.228 4.23055 23.6061 5.31222 24.6878C6.3939 25.7695 7.77203 26.5061 9.27235 26.8045C10.7727 27.1029 12.3278 26.9498 13.7411 26.3644C15.1543 25.779 16.3623 24.7877 17.2122 23.5157C18.062 22.2438 18.5156 20.7485 18.5156 19.2188C18.5133 17.1682 17.6976 15.2023 16.2477 13.7523C14.7977 12.3024 12.8318 11.4867 10.7813 11.4844ZM13.5938 19.9219H10.7813C10.5948 19.9219 10.4159 19.8478 10.2841 19.7159C10.1522 19.5841 10.0781 19.4052 10.0781 19.2188V14.0625C10.0781 13.876 10.1522 13.6972 10.2841 13.5653C10.4159 13.4335 10.5948 13.3594 10.7813 13.3594C10.9677 13.3594 11.1466 13.4335 11.2784 13.5653C11.4103 13.6972 11.4844 13.876 11.4844 14.0625V18.5156H13.5938C13.7802 18.5156 13.9591 18.5897 14.0909 18.7216C14.2228 18.8534 14.2969 19.0323 14.2969 19.2188C14.2969 19.4052 14.2228 19.5841 14.0909 19.7159C13.9591 19.8478 13.7802 19.9219 13.5938 19.9219Z" fill="#23408F"/>
</svg>
