<svg width="16" height="16" viewBox="0 0 16 16" fill="none" xmlns="http://www.w3.org/2000/svg">
<path d="M11.8048 5.13807C12.0651 4.87772 12.0651 4.45561 11.8048 4.19526C11.5444 3.93491 11.1223 3.93491 10.8619 4.19526L4.66669 10.3905L1.80476 7.5286C1.54441 7.26825 1.1223 7.26825 0.861949 7.5286C0.6016 7.78894 0.6016 8.21106 0.861949 8.4714L4.19528 11.8047C4.45563 12.0651 4.87774 12.0651 5.13809 11.8047L11.8048 5.13807Z" fill="#2D9CDB"/>
<path d="M15.1381 5.13807C15.3984 4.87772 15.3984 4.45561 15.1381 4.19526C14.8777 3.93491 14.4556 3.93491 14.1953 4.19526L7.99688 10.3937C7.73519 10.1862 7.35378 10.2034 7.11195 10.4453C6.8516 10.7056 6.8516 11.1277 7.11195 11.3881L7.52862 11.8047C7.78897 12.0651 8.21108 12.0651 8.47143 11.8047L15.1381 5.13807Z" fill="#2D9CDB"/>
<path d="M5.55476 7.94526L5.13809 7.5286C4.87774 7.26825 4.45563 7.26825 4.19528 7.5286C3.93493 7.78894 3.93493 8.21106 4.19528 8.4714L4.61195 8.88807C4.8723 9.14842 5.29441 9.14842 5.55476 8.88807C5.81511 8.62772 5.81511 8.20561 5.55476 7.94526Z" fill="#2D9CDB"/>
</svg>
