<svg width="20" height="21" viewBox="0 0 20 21" fill="none" xmlns="http://www.w3.org/2000/svg">
<path d="M9.99993 14.1208C8.00827 14.1208 6.3916 12.5042 6.3916 10.5125C6.3916 8.52084 8.00827 6.90417 9.99993 6.90417C11.9916 6.90417 13.6083 8.52084 13.6083 10.5125C13.6083 12.5042 11.9916 14.1208 9.99993 14.1208ZM9.99993 8.15417C8.69993 8.15417 7.6416 9.21251 7.6416 10.5125C7.6416 11.8125 8.69993 12.8708 9.99993 12.8708C11.2999 12.8708 12.3583 11.8125 12.3583 10.5125C12.3583 9.21251 11.2999 8.15417 9.99993 8.15417Z" fill="#9B9B9B"/>
<path d="M9.9999 18.0291C6.86657 18.0291 3.90824 16.1957 1.8749 13.0124C0.991569 11.6374 0.991569 9.39573 1.8749 8.01239C3.91657 4.82906 6.8749 2.99573 9.9999 2.99573C13.1249 2.99573 16.0832 4.82906 18.1166 8.01239C18.9999 9.38739 18.9999 11.6291 18.1166 13.0124C16.0832 16.1957 13.1249 18.0291 9.9999 18.0291ZM9.9999 4.24573C7.30824 4.24573 4.73324 5.86239 2.93324 8.68739C2.30824 9.66239 2.30824 11.3624 2.93324 12.3374C4.73324 15.1624 7.30824 16.7791 9.9999 16.7791C12.6916 16.7791 15.2666 15.1624 17.0666 12.3374C17.6916 11.3624 17.6916 9.66239 17.0666 8.68739C15.2666 5.86239 12.6916 4.24573 9.9999 4.24573Z" fill="#9B9B9B"/>
</svg>
