<svg width="24" height="25" viewBox="0 0 24 25" fill="none" xmlns="http://www.w3.org/2000/svg">
<g clip-path="url(#clip0_12_2840)">
<path d="M0 12.0125C0 18.6399 5.37258 24.0125 12 24.0125C18.6274 24.0125 24 18.6399 24 12.0125C24 5.38503 18.6274 0.0124512 12 0.0124512C5.37258 0.0124512 0 5.38503 0 12.0125Z" fill="#5186EE"/>
<path d="M13.1584 18.7317V12.6011H15.3197L15.6434 10.2119H13.1583V8.68649C13.1583 7.99476 13.3601 7.52337 14.4019 7.52337L15.7308 7.52278V5.38588C15.5009 5.35682 14.7121 5.29175 13.7945 5.29175C11.8785 5.29175 10.5668 6.40515 10.5668 8.44994V10.2119H8.3999V12.6011H10.5668V18.7317H13.1584Z" fill="white"/>
</g>
<defs>
<clipPath id="clip0_12_2840">
<rect width="24" height="24" fill="white" transform="translate(0 0.0124512)"/>
</clipPath>
</defs>
</svg>
