<svg width="24" height="25" viewBox="0 0 24 25" fill="none" xmlns="http://www.w3.org/2000/svg">
<g clip-path="url(#clip0_10_8249)">
<path d="M5.31891 15.0158L4.4835 18.1345L1.43011 18.1991C0.517594 16.5066 0 14.5702 0 12.5123C0 10.5224 0.483938 8.64595 1.34175 6.99365H1.34241L4.06078 7.49203L5.25159 10.1941C5.00236 10.9207 4.86652 11.7007 4.86652 12.5123C4.86661 13.3932 5.02617 14.2372 5.31891 15.0158Z" fill="#FBBB00"/>
<path d="M23.7904 10.2706C23.9282 10.9965 24.0001 11.7462 24.0001 12.5124C24.0001 13.3715 23.9098 14.2095 23.7377 15.0179C23.1535 17.7687 21.6271 20.1706 19.5127 21.8704L19.512 21.8698L16.0881 21.6951L15.6035 18.67C17.0065 17.8471 18.103 16.5594 18.6806 15.0179H12.2639V10.2706H18.7742H23.7904Z" fill="#518EF8"/>
<path d="M19.5122 21.8698L19.5128 21.8705C17.4564 23.5234 14.844 24.5124 12.0003 24.5124C7.43042 24.5124 3.45725 21.9582 1.43042 18.1993L5.31922 15.016C6.33261 17.7206 8.94162 19.6459 12.0003 19.6459C13.315 19.6459 14.5467 19.2905 15.6036 18.67L19.5122 21.8698Z" fill="#28B446"/>
<path d="M19.6596 3.27508L15.7721 6.4577C14.6783 5.77398 13.3853 5.37901 12 5.37901C8.87213 5.37901 6.21431 7.39262 5.25169 10.1942L1.34245 6.99376H1.3418C3.33895 3.14322 7.36223 0.512451 12 0.512451C14.9117 0.512451 17.5814 1.54961 19.6596 3.27508Z" fill="#F14336"/>
</g>
<defs>
<clipPath id="clip0_10_8249">
<rect width="24" height="24" fill="white" transform="translate(0 0.512451)"/>
</clipPath>
</defs>
</svg>
