<svg width="24" height="24" viewBox="0 0 24 24" fill="none" xmlns="http://www.w3.org/2000/svg">
<path d="M20.83 7.82733L14.28 2.70683C13 1.7101 11 1.70032 9.72996 2.69706L3.17996 7.82733C2.23996 8.56022 1.66996 10.026 1.86996 11.1791L3.12996 18.5471C3.41996 20.1986 4.98996 21.4983 6.69996 21.4983H17.3C18.99 21.4983 20.59 20.1693 20.88 18.5374L22.14 11.1693C22.32 10.026 21.75 8.56022 20.83 7.82733ZM12.75 17.5895C12.75 17.9901 12.41 18.3224 12 18.3224C11.59 18.3224 11.25 17.9901 11.25 17.5895V14.6579C11.25 14.2573 11.59 13.925 12 13.925C12.41 13.925 12.75 14.2573 12.75 14.6579V17.5895Z" fill="#23408F"/>
</svg>
