<svg width="24" height="24" viewBox="0 0 24 24" fill="none" xmlns="http://www.w3.org/2000/svg">
<path d="M9.99231 18.9976C9.9911 20.0976 10.8901 20.9985 11.9901 20.9998C13.0901 21.001 13.9911 20.1019 13.9923 19.0019C13.9935 17.902 13.0945 17.001 11.9945 16.9998C10.8945 16.9985 9.99351 17.8976 9.99231 18.9976Z" stroke="#292D32" stroke-width="1.5"/>
<path d="M10.0077 4.99805C10.0065 6.09805 10.9055 6.99903 12.0055 7.00024C13.1055 7.00145 14.0065 6.10244 14.0077 5.00244C14.0089 3.90244 13.1099 3.00145 12.0099 3.00024C10.9099 2.99904 10.0089 3.89805 10.0077 4.99805Z" stroke="#292D32" stroke-width="1.5"/>
<path d="M10 11.998C9.99879 13.098 10.8978 13.999 11.9978 14.0002C13.0978 14.0014 13.9988 13.1024 14 12.0024C14.0012 10.9024 13.1022 10.0015 12.0022 10.0002C10.9022 9.99904 10.0012 10.898 10 11.998Z" stroke="#292D32" stroke-width="1.5"/>
</svg>
