<svg width="14" height="14" viewBox="0 0 14 14" fill="none" xmlns="http://www.w3.org/2000/svg">
<path d="M10.4139 12.2001L10.4144 12.2004C10.7492 12.3868 10.9423 12.3426 11.0221 12.2956C11.1022 12.2484 11.2349 12.1003 11.2349 11.7163V4.04051C11.2303 3.15881 10.5091 2.4359 9.62628 2.4359H4.37371C3.49012 2.4359 2.77051 3.15927 2.77051 4.0391V11.7163C2.77051 12.0962 2.90234 12.2438 2.9833 12.2915C3.06458 12.3394 3.25855 12.3832 3.59235 12.1996C3.5926 12.1995 3.59286 12.1993 3.59312 12.1992L6.24973 10.7239L10.4139 12.2001ZM10.4139 12.2001L7.75673 10.7245M10.4139 12.2001L7.75673 10.7245M7.75673 10.7245C7.52405 10.5929 7.25028 10.5421 7.00476 10.5421C6.75811 10.5421 6.48419 10.5934 6.25052 10.7235L7.75673 10.7245ZM5.63782 7.55769H8.36217C8.86171 7.55769 9.27083 7.14858 9.27083 6.64904C9.27083 6.1495 8.86171 5.74038 8.36217 5.74038H5.63782C5.13828 5.74038 4.72916 6.1495 4.72916 6.64904C4.72916 7.14858 5.13828 7.55769 5.63782 7.55769Z" fill="#23408F" stroke="#23408F"/>
</svg>
