<svg width="24" height="24" viewBox="0 0 24 24" fill="none" xmlns="http://www.w3.org/2000/svg">
<path d="M14.22 21.6301C13.04 21.6301 11.37 20.8001 10.05 16.8301L9.33 14.6701L7.17 13.9501C3.21 12.6301 2.38 10.9601 2.38 9.78007C2.38 8.61007 3.21 6.93007 7.17 5.60007L15.66 2.77007C17.78 2.06007 19.55 2.27007 20.64 3.35007C21.73 4.43007 21.94 6.21007 21.23 8.33007L18.4 16.8201C17.07 20.8001 15.4 21.6301 14.22 21.6301ZM7.64 7.03007C4.86 7.96007 3.87 9.06007 3.87 9.78007C3.87 10.5001 4.86 11.6001 7.64 12.5201L10.16 13.3601C10.38 13.4301 10.56 13.6101 10.63 13.8301L11.47 16.3501C12.39 19.1301 13.5 20.1201 14.22 20.1201C14.94 20.1201 16.04 19.1301 16.97 16.3501L19.8 7.86007C20.31 6.32007 20.22 5.06007 19.57 4.41007C18.92 3.76007 17.66 3.68007 16.13 4.19007L7.64 7.03007Z" fill="#2D2D2D"/>
<path d="M10.11 14.4C9.91999 14.4 9.72999 14.33 9.57999 14.18C9.28999 13.89 9.28999 13.41 9.57999 13.12L13.16 9.53C13.45 9.24 13.93 9.24 14.22 9.53C14.51 9.82 14.51 10.3 14.22 10.59L10.64 14.18C10.5 14.33 10.3 14.4 10.11 14.4Z" fill="#2D2D2D"/>
</svg>
