<svg width="16" height="18" viewBox="0 0 16 18" fill="none" xmlns="http://www.w3.org/2000/svg">
<path d="M5.78925 9.72803C5.9241 9.44862 6 9.13324 6 8.79946C6 8.46567 5.9241 8.15029 5.78925 7.87089M5.78925 9.72803C5.46089 10.4083 4.78299 10.8753 4 10.8753C2.89543 10.8753 2 9.94594 2 8.79946C2 7.65297 2.89543 6.72356 4 6.72356C4.78299 6.72356 5.46089 7.19058 5.78925 7.87089M5.78925 9.72803L10.2108 12.0227M5.78925 7.87089L10.2108 5.57624M10.2108 5.57624C10.5391 6.25655 11.217 6.72356 12 6.72356C13.1046 6.72356 14 5.79415 14 4.64767C14 3.50119 13.1046 2.57178 12 2.57178C10.8954 2.57178 10 3.50119 10 4.64767C10 4.98145 10.0759 5.29684 10.2108 5.57624ZM10.2108 12.0227C10.0759 12.3021 10 12.6175 10 12.9512C10 14.0977 10.8954 15.0271 12 15.0271C13.1046 15.0271 14 14.0977 14 12.9512C14 11.8048 13.1046 10.8753 12 10.8753C11.217 10.8753 10.5391 11.3424 10.2108 12.0227Z" stroke="black" stroke-linecap="round" stroke-linejoin="round"/>
</svg>
